<svg xmlns="http://www.w3.org/2000/svg" xmlns:xlink="http://www.w3.org/1999/xlink" width="64" height="64" viewBox="0 0 64 64" id="skateboard"><defs><path id="a" d="M.06 64V.04H64V64z"></path></defs><g fill="none" fill-rule="evenodd"><path fill="#FFFFFE" d="M46.691 32.983a3 3 0 101.288 5.862 3 3 0 00-1.288-5.862M53.692 23.19c-.76 1.182-3.323 4.377-6.014 4.969l-31.254 6.869c-2.689.594-6.358-1.236-7.541-1.988a1.5 1.5 0 10-1.617 2.527c.187.12 4.079 2.576 8.023 2.576.596 0 1.193-.057 1.779-.185l31.254-6.869c4.463-.981 7.759-6.065 7.897-6.281a1.5 1.5 0 00-2.527-1.618"></path><mask id="b" fill="#fff"><use xlink:href="#a"></use></mask><path fill="#FFFFFE" d="M19.343 38.993a3 3 0 1 0 1.288 5.86 3 3 0 0 0-1.288-5.86" mask="url(#b)"></path><path fill="#4C5665" d="M55.765 22.738a1.5 1.5 0 0 1 .454 2.07c-.138.216-3.434 5.3-7.897 6.281l-31.254 6.869a8.332 8.332 0 0 1-1.779.185c-3.944 0-7.836-2.456-8.023-2.576a1.5 1.5 0 1 1 1.617-2.527c1.183.752 4.852 2.582 7.541 1.988l31.254-6.869c2.691-.592 5.254-3.787 6.014-4.969a1.501 1.501 0 0 1 2.073-.452zm-7.786 16.105a3 3 0 1 1-1.289-5.861 3 3 0 0 1 1.289 5.861zm-27.348 6.011a3 3 0 1 1-1.286-5.862 3 3 0 0 1 1.286 5.862zM32 0C14.327 0 0 14.327 0 32c0 17.673 14.327 32 32 32 17.673 0 32-14.327 32-32C64 14.327 49.673 0 32 0z" mask="url(#b)"></path></g></svg>